<?xml version="1.0" encoding="UTF-8" standalone="no"?>
<!DOCTYPE svg PUBLIC "-//W3C//DTD SVG 1.1//EN"
 "http://www.w3.org/Graphics/SVG/1.1/DTD/svg11.dtd">
<!-- Generated by graphviz version 12.2.1 (20241206.2353)
 -->
<!-- Title: dependency&#45;cruiser output Pages: 1 -->
<svg width="388pt" height="244pt"
 viewBox="0.00 0.00 388.00 244.00" xmlns="http://www.w3.org/2000/svg" xmlns:xlink="http://www.w3.org/1999/xlink">
<g id="graph0" class="graph" transform="scale(1 1) rotate(0) translate(4 240)">
<title>dependency&#45;cruiser output</title>
<polygon fill="white" stroke="none" points="-4,4 -4,-240 384,-240 384,4 -4,4"/>
<g id="clust1" class="cluster">
<title>cluster_backend</title>
<path fill="#ffffff" stroke="black" stroke-width="2" d="M20,-8C20,-8 360,-8 360,-8 366,-8 372,-14 372,-20 372,-20 372,-216 372,-216 372,-222 366,-228 360,-228 360,-228 20,-228 20,-228 14,-228 8,-222 8,-216 8,-216 8,-20 8,-20 8,-14 14,-8 20,-8"/>
<text text-anchor="middle" x="190" y="-215.45" font-family="Helvetica,sans-Serif" font-weight="bold" font-size="9.00">backend</text>
</g>
<g id="clust2" class="cluster">
<title>cluster_backend/controllers</title>
<path fill="#ffffff" stroke="black" stroke-width="2" d="M181.75,-148C181.75,-148 256.5,-148 256.5,-148 262.5,-148 268.5,-154 268.5,-160 268.5,-160 268.5,-189 268.5,-189 268.5,-195 262.5,-201 256.5,-201 256.5,-201 181.75,-201 181.75,-201 175.75,-201 169.75,-195 169.75,-189 169.75,-189 169.75,-160 169.75,-160 169.75,-154 175.75,-148 181.75,-148"/>
<text text-anchor="middle" x="219.12" y="-188.45" font-family="Helvetica,sans-Serif" font-weight="bold" font-size="9.00">controllers</text>
</g>
<g id="clust3" class="cluster">
<title>cluster_backend/database</title>
<path fill="#ffffff" stroke="black" stroke-width="2" d="M188.12,-77C188.12,-77 250.12,-77 250.12,-77 256.12,-77 262.12,-83 262.12,-89 262.12,-89 262.12,-118 262.12,-118 262.12,-124 256.12,-130 250.12,-130 250.12,-130 188.12,-130 188.12,-130 182.12,-130 176.12,-124 176.12,-118 176.12,-118 176.12,-89 176.12,-89 176.12,-83 182.12,-77 188.12,-77"/>
<text text-anchor="middle" x="219.12" y="-117.45" font-family="Helvetica,sans-Serif" font-weight="bold" font-size="9.00">database</text>
</g>
<g id="clust4" class="cluster">
<title>cluster_backend/errors</title>
<path fill="#ffffff" stroke="black" stroke-width="2" d="M184,-16C184,-16 254.25,-16 254.25,-16 260.25,-16 266.25,-22 266.25,-28 266.25,-28 266.25,-57 266.25,-57 266.25,-63 260.25,-69 254.25,-69 254.25,-69 184,-69 184,-69 178,-69 172,-63 172,-57 172,-57 172,-28 172,-28 172,-22 178,-16 184,-16"/>
<text text-anchor="middle" x="219.12" y="-56.45" font-family="Helvetica,sans-Serif" font-weight="bold" font-size="9.00">errors</text>
</g>
<g id="clust5" class="cluster">
<title>cluster_backend/models</title>
<path fill="#ffffff" stroke="black" stroke-width="2" d="M297.25,-148C297.25,-148 343.25,-148 343.25,-148 349.25,-148 355.25,-154 355.25,-160 355.25,-160 355.25,-189 355.25,-189 355.25,-195 349.25,-201 343.25,-201 343.25,-201 297.25,-201 297.25,-201 291.25,-201 285.25,-195 285.25,-189 285.25,-189 285.25,-160 285.25,-160 285.25,-154 291.25,-148 297.25,-148"/>
<text text-anchor="middle" x="320.25" y="-188.45" font-family="Helvetica,sans-Serif" font-weight="bold" font-size="9.00">models</text>
</g>
<g id="clust6" class="cluster">
<title>cluster_backend/routes</title>
<path fill="#ffffff" stroke="black" stroke-width="2" d="M90,-148C90,-148 149.75,-148 149.75,-148 155.75,-148 161.75,-154 161.75,-160 161.75,-160 161.75,-189 161.75,-189 161.75,-195 155.75,-201 149.75,-201 149.75,-201 90,-201 90,-201 84,-201 78,-195 78,-189 78,-189 78,-160 78,-160 78,-154 84,-148 90,-148"/>
<text text-anchor="middle" x="119.88" y="-188.45" font-family="Helvetica,sans-Serif" font-weight="bold" font-size="9.00">routes</text>
</g>
<g id="clust7" class="cluster">
<title>cluster_backend/utils</title>
<path fill="#ffffff" stroke="black" stroke-width="2" d="M288.5,-25C288.5,-25 352,-25 352,-25 358,-25 364,-31 364,-37 364,-37 364,-128 364,-128 364,-134 358,-140 352,-140 352,-140 288.5,-140 288.5,-140 282.5,-140 276.5,-134 276.5,-128 276.5,-128 276.5,-37 276.5,-37 276.5,-31 282.5,-25 288.5,-25"/>
<text text-anchor="middle" x="320.25" y="-127.45" font-family="Helvetica,sans-Serif" font-weight="bold" font-size="9.00">utils</text>
</g>
<!-- backend/app.js -->
<g id="node1" class="node">
<title>backend/app.js</title>
<g id="a_node1"><a xlink:href="backend/app.js" xlink:title="app.js">
<path fill="#ffffcc" stroke="black" d="M63.83,-133.25C63.83,-133.25 22.17,-133.25 22.17,-133.25 19.08,-133.25 16,-130.17 16,-127.08 16,-127.08 16,-120.92 16,-120.92 16,-117.83 19.08,-114.75 22.17,-114.75 22.17,-114.75 63.83,-114.75 63.83,-114.75 66.92,-114.75 70,-117.83 70,-120.92 70,-120.92 70,-127.08 70,-127.08 70,-130.17 66.92,-133.25 63.83,-133.25"/>
<text text-anchor="start" x="30.62" y="-120.7" font-family="Helvetica,sans-Serif" font-size="9.00">app.js</text>
</a>
</g>
</g>
<!-- backend/database/connection.js -->
<g id="node2" class="node">
<title>backend/database/connection.js</title>
<g id="a_node2"><a xlink:href="backend/database/connection.js" xlink:title="connection.js">
<path fill="#ffffcc" stroke="black" d="M247.96,-103.25C247.96,-103.25 190.29,-103.25 190.29,-103.25 187.21,-103.25 184.12,-100.17 184.12,-97.08 184.12,-97.08 184.12,-90.92 184.12,-90.92 184.12,-87.83 187.21,-84.75 190.29,-84.75 190.29,-84.75 247.96,-84.75 247.96,-84.75 251.04,-84.75 254.12,-87.83 254.12,-90.92 254.12,-90.92 254.12,-97.08 254.12,-97.08 254.12,-100.17 251.04,-103.25 247.96,-103.25"/>
<text text-anchor="start" x="192.12" y="-90.7" font-family="Helvetica,sans-Serif" font-size="9.00">connection.js</text>
</a>
</g>
</g>
<!-- backend/app.js&#45;&gt;backend/database/connection.js -->
<g id="edge1" class="edge">
<title>backend/app.js&#45;&gt;backend/database/connection.js</title>
<path fill="none" stroke="#000000" stroke-width="2" stroke-opacity="0.200000" d="M70.45,-119.44C98.31,-114.64 142.6,-107.01 175.43,-101.36"/>
<polygon fill="#000000" fill-opacity="0.200000" stroke="#000000" stroke-width="2" stroke-opacity="0.200000" points="175.39,-103.49 180.95,-100.41 174.68,-99.35 175.39,-103.49"/>
</g>
<!-- backend/errors/error&#45;handler.js -->
<g id="node3" class="node">
<title>backend/errors/error&#45;handler.js</title>
<g id="a_node3"><a xlink:href="backend/errors/error-handler.js" xlink:title="error&#45;handler.js">
<path fill="#ffffcc" stroke="black" d="M252.08,-42.25C252.08,-42.25 186.17,-42.25 186.17,-42.25 183.08,-42.25 180,-39.17 180,-36.08 180,-36.08 180,-29.92 180,-29.92 180,-26.83 183.08,-23.75 186.17,-23.75 186.17,-23.75 252.08,-23.75 252.08,-23.75 255.17,-23.75 258.25,-26.83 258.25,-29.92 258.25,-29.92 258.25,-36.08 258.25,-36.08 258.25,-39.17 255.17,-42.25 252.08,-42.25"/>
<text text-anchor="start" x="188" y="-29.7" font-family="Helvetica,sans-Serif" font-size="9.00">error&#45;handler.js</text>
</a>
</g>
</g>
<!-- backend/app.js&#45;&gt;backend/errors/error&#45;handler.js -->
<g id="edge2" class="edge">
<title>backend/app.js&#45;&gt;backend/errors/error&#45;handler.js</title>
<path fill="none" stroke="#000000" stroke-width="2" stroke-opacity="0.200000" d="M58,-114.42C64.05,-110.41 71.27,-105.82 78,-102 115.35,-80.81 160.12,-59.43 188.83,-46.21"/>
<polygon fill="#000000" fill-opacity="0.200000" stroke="#000000" stroke-width="2" stroke-opacity="0.200000" points="189.51,-48.21 194.09,-43.8 187.76,-44.39 189.51,-48.21"/>
</g>
<!-- backend/routes/authRoute.js -->
<g id="node4" class="node">
<title>backend/routes/authRoute.js</title>
<g id="a_node4"><a xlink:href="backend/routes/authRoute.js" xlink:title="authRoute.js">
<path fill="#ffffcc" stroke="black" d="M147.58,-174.25C147.58,-174.25 92.17,-174.25 92.17,-174.25 89.08,-174.25 86,-171.17 86,-168.08 86,-168.08 86,-161.92 86,-161.92 86,-158.83 89.08,-155.75 92.17,-155.75 92.17,-155.75 147.58,-155.75 147.58,-155.75 150.67,-155.75 153.75,-158.83 153.75,-161.92 153.75,-161.92 153.75,-168.08 153.75,-168.08 153.75,-171.17 150.67,-174.25 147.58,-174.25"/>
<text text-anchor="start" x="94" y="-161.7" font-family="Helvetica,sans-Serif" font-size="9.00">authRoute.js</text>
</a>
</g>
</g>
<!-- backend/app.js&#45;&gt;backend/routes/authRoute.js -->
<g id="edge3" class="edge">
<title>backend/app.js&#45;&gt;backend/routes/authRoute.js</title>
<path fill="none" stroke="#000000" stroke-width="2" stroke-opacity="0.200000" d="M53.67,-133.68C59.05,-138.68 66.15,-144.7 78.17,-151.57"/>
<polygon fill="#000000" fill-opacity="0.200000" stroke="#000000" stroke-width="2" stroke-opacity="0.200000" points="76.9,-153.27 83.18,-154.28 78.9,-149.58 76.9,-153.27"/>
</g>
<!-- backend/utils/appError.js -->
<g id="node5" class="node">
<title>backend/utils/appError.js</title>
<g id="a_node5"><a xlink:href="backend/utils/appError.js" xlink:title="appError.js">
<path fill="#ffffcc" stroke="black" d="M344.21,-51.25C344.21,-51.25 296.29,-51.25 296.29,-51.25 293.21,-51.25 290.12,-48.17 290.12,-45.08 290.12,-45.08 290.12,-38.92 290.12,-38.92 290.12,-35.83 293.21,-32.75 296.29,-32.75 296.29,-32.75 344.21,-32.75 344.21,-32.75 347.29,-32.75 350.38,-35.83 350.38,-38.92 350.38,-38.92 350.38,-45.08 350.38,-45.08 350.38,-48.17 347.29,-51.25 344.21,-51.25"/>
<text text-anchor="start" x="298.12" y="-38.7" font-family="Helvetica,sans-Serif" font-size="9.00">appError.js</text>
</a>
</g>
</g>
<!-- backend/app.js&#45;&gt;backend/utils/appError.js -->
<g id="edge4" class="edge">
<title>backend/app.js&#45;&gt;backend/utils/appError.js</title>
<path fill="none" stroke="#000000" stroke-width="2" stroke-opacity="0.200000" d="M70.29,-127.07C126.42,-133.34 254.07,-145.97 268.5,-133 280.96,-121.79 266.23,-71.25 276.5,-58 278.09,-55.94 279.98,-54.15 282.06,-52.59"/>
<polygon fill="#000000" fill-opacity="0.200000" stroke="#000000" stroke-width="2" stroke-opacity="0.200000" points="282.98,-54.48 287.11,-49.65 280.87,-50.86 282.98,-54.48"/>
</g>
<!-- backend/database/connection.js&#45;&gt;backend/utils/appError.js -->
<g id="edge8" class="edge">
<title>backend/database/connection.js&#45;&gt;backend/utils/appError.js</title>
<path fill="none" stroke="#000000" stroke-width="2" stroke-opacity="0.200000" d="M249.29,-84.27C256.11,-81.09 262.98,-77.03 268.5,-72 273.8,-67.17 271.04,-62.64 276.5,-58 278.19,-56.56 280.02,-55.25 281.94,-54.05"/>
<polygon fill="#000000" fill-opacity="0.200000" stroke="#000000" stroke-width="2" stroke-opacity="0.200000" points="282.7,-56.02 287.02,-51.37 280.73,-52.31 282.7,-56.02"/>
</g>
<!-- backend/utils/catchAsync.js -->
<g id="node8" class="node">
<title>backend/utils/catchAsync.js</title>
<g id="a_node8"><a xlink:href="backend/utils/catchAsync.js" xlink:title="catchAsync.js">
<path fill="#ffffcc" stroke="black" d="M349.83,-82.25C349.83,-82.25 290.67,-82.25 290.67,-82.25 287.58,-82.25 284.5,-79.17 284.5,-76.08 284.5,-76.08 284.5,-69.92 284.5,-69.92 284.5,-66.83 287.58,-63.75 290.67,-63.75 290.67,-63.75 349.83,-63.75 349.83,-63.75 352.92,-63.75 356,-66.83 356,-69.92 356,-69.92 356,-76.08 356,-76.08 356,-79.17 352.92,-82.25 349.83,-82.25"/>
<text text-anchor="start" x="292.5" y="-69.7" font-family="Helvetica,sans-Serif" font-size="9.00">catchAsync.js</text>
</a>
</g>
</g>
<!-- backend/database/connection.js&#45;&gt;backend/utils/catchAsync.js -->
<g id="edge9" class="edge">
<title>backend/database/connection.js&#45;&gt;backend/utils/catchAsync.js</title>
<path fill="none" stroke="#000000" stroke-width="2" stroke-opacity="0.200000" d="M254.52,-86.71C261.28,-85.28 268.46,-83.76 275.48,-82.27"/>
<polygon fill="#000000" fill-opacity="0.200000" stroke="#000000" stroke-width="2" stroke-opacity="0.200000" points="275.85,-84.34 281.29,-81.04 274.98,-80.23 275.85,-84.34"/>
</g>
<!-- backend/errors/error&#45;handler.js&#45;&gt;backend/utils/appError.js -->
<g id="edge10" class="edge">
<title>backend/errors/error&#45;handler.js&#45;&gt;backend/utils/appError.js</title>
<path fill="none" stroke="#000000" stroke-width="2" stroke-opacity="0.200000" d="M258.73,-36.51C266,-37.16 273.59,-37.85 280.84,-38.51"/>
<polygon fill="#000000" fill-opacity="0.200000" stroke="#000000" stroke-width="2" stroke-opacity="0.200000" points="280.62,-40.6 286.79,-39.05 281,-36.42 280.62,-40.6"/>
</g>
<!-- backend/controllers/authController.js -->
<g id="node6" class="node">
<title>backend/controllers/authController.js</title>
<g id="a_node6"><a xlink:href="backend/controllers/authController.js" xlink:title="authController.js">
<path fill="#ffffcc" stroke="black" d="M254.33,-174.25C254.33,-174.25 183.92,-174.25 183.92,-174.25 180.83,-174.25 177.75,-171.17 177.75,-168.08 177.75,-168.08 177.75,-161.92 177.75,-161.92 177.75,-158.83 180.83,-155.75 183.92,-155.75 183.92,-155.75 254.33,-155.75 254.33,-155.75 257.42,-155.75 260.5,-158.83 260.5,-161.92 260.5,-161.92 260.5,-168.08 260.5,-168.08 260.5,-171.17 257.42,-174.25 254.33,-174.25"/>
<text text-anchor="start" x="185.75" y="-161.7" font-family="Helvetica,sans-Serif" font-size="9.00">authController.js</text>
</a>
</g>
</g>
<!-- backend/routes/authRoute.js&#45;&gt;backend/controllers/authController.js -->
<g id="edge11" class="edge">
<title>backend/routes/authRoute.js&#45;&gt;backend/controllers/authController.js</title>
<path fill="none" stroke="#000000" stroke-width="2" stroke-opacity="0.200000" d="M154.07,-165C158.75,-165 163.64,-165 168.54,-165"/>
<polygon fill="#000000" fill-opacity="0.200000" stroke="#000000" stroke-width="2" stroke-opacity="0.200000" points="168.31,-167.1 174.31,-165 168.31,-162.9 168.31,-167.1"/>
</g>
<!-- backend/controllers/authController.js&#45;&gt;backend/utils/appError.js -->
<g id="edge6" class="edge">
<title>backend/controllers/authController.js&#45;&gt;backend/utils/appError.js</title>
<path fill="none" stroke="#000000" stroke-width="2" stroke-opacity="0.200000" d="M260.56,-158.55C263.55,-156.82 266.27,-154.67 268.5,-152 281.95,-135.92 263.83,-74.7 276.5,-58 278.07,-55.93 279.94,-54.12 282.01,-52.55"/>
<polygon fill="#000000" fill-opacity="0.200000" stroke="#000000" stroke-width="2" stroke-opacity="0.200000" points="282.93,-54.45 287.04,-49.6 280.8,-50.83 282.93,-54.45"/>
</g>
<!-- backend/models/User.js -->
<g id="node7" class="node">
<title>backend/models/User.js</title>
<g id="a_node7"><a xlink:href="backend/models/User.js" xlink:title="User.js">
<path fill="#ffffcc" stroke="black" d="M341.08,-174.25C341.08,-174.25 299.42,-174.25 299.42,-174.25 296.33,-174.25 293.25,-171.17 293.25,-168.08 293.25,-168.08 293.25,-161.92 293.25,-161.92 293.25,-158.83 296.33,-155.75 299.42,-155.75 299.42,-155.75 341.08,-155.75 341.08,-155.75 344.17,-155.75 347.25,-158.83 347.25,-161.92 347.25,-161.92 347.25,-168.08 347.25,-168.08 347.25,-171.17 344.17,-174.25 341.08,-174.25"/>
<text text-anchor="start" x="306.38" y="-161.7" font-family="Helvetica,sans-Serif" font-size="9.00">User.js</text>
</a>
</g>
</g>
<!-- backend/controllers/authController.js&#45;&gt;backend/models/User.js -->
<g id="edge5" class="edge">
<title>backend/controllers/authController.js&#45;&gt;backend/models/User.js</title>
<path fill="none" stroke="#000000" stroke-width="2" stroke-opacity="0.200000" d="M260.73,-165C268.57,-165 276.72,-165 284.36,-165"/>
<polygon fill="#000000" fill-opacity="0.200000" stroke="#000000" stroke-width="2" stroke-opacity="0.200000" points="284.01,-167.1 290.01,-165 284.01,-162.9 284.01,-167.1"/>
</g>
<!-- backend/controllers/authController.js&#45;&gt;backend/utils/catchAsync.js -->
<g id="edge7" class="edge">
<title>backend/controllers/authController.js&#45;&gt;backend/utils/catchAsync.js</title>
<path fill="none" stroke="#000000" stroke-width="2" stroke-opacity="0.200000" d="M260.89,-158.19C263.73,-156.53 266.33,-154.49 268.5,-152 287.05,-130.73 258.98,-111.13 276.5,-89 276.91,-88.49 277.33,-87.99 277.77,-87.51"/>
<polygon fill="#000000" fill-opacity="0.200000" stroke="#000000" stroke-width="2" stroke-opacity="0.200000" points="278.68,-89.48 281.97,-84.05 276.01,-86.24 278.68,-89.48"/>
</g>
<!-- backend/utils/email.js -->
<g id="node9" class="node">
<title>backend/utils/email.js</title>
<g id="a_node9"><a xlink:href="backend/utils/email.js" xlink:title="no&#45;orphans">
<path fill="#ccffcc" stroke="orange" d="M341.08,-113.25C341.08,-113.25 299.42,-113.25 299.42,-113.25 296.33,-113.25 293.25,-110.17 293.25,-107.08 293.25,-107.08 293.25,-100.92 293.25,-100.92 293.25,-97.83 296.33,-94.75 299.42,-94.75 299.42,-94.75 341.08,-94.75 341.08,-94.75 344.17,-94.75 347.25,-97.83 347.25,-100.92 347.25,-100.92 347.25,-107.08 347.25,-107.08 347.25,-110.17 344.17,-113.25 341.08,-113.25"/>
<text text-anchor="start" x="304.5" y="-100.7" font-family="Helvetica,sans-Serif" font-size="9.00" fill="orange">email.js</text>
</a>
</g>
</g>
</g>
</svg>
